PathFileType	4	(X/Y/Z)	C:\Users\WrightLab\Desktop\Jo\P1_boxCal5.trc
DataRate	CameraRate	NumFrames	NumMarkers	Units	OrigDataRate	OrigDataStartFrame	OrigNumFrames
100.00	100.00	       8	19	mm	100.00	367	       976
Frame#	Time	Headset_Front			Headset_Back			Headset_Left			Headset_Right			Left_Shoulder			Right_Shoulder			Sternum			C7			Left Elbow			Right Elbow			Left Wrist			Right Wrist			Left ASIS			Right ASIS			S2			Left Knee			Right Knee			Left Ankle			Right Ankle			
		X1	Y1	Z1	X2	Y2	Z2	X3	Y3	Z3	X4	Y4	Z4	X5	Y5	Z5	X6	Y6	Z6	X7	Y7	Z7	X8	Y8	Z8	X9	Y9	Z9	X10	Y10	Z10	X11	Y11	Z11	X12	Y12	Z12	X13	Y13	Z13	X14	Y14	Z14	X15	Y15	Z15	X16	Y16	Z16	X17	Y17	Z17	X18	Y18	Z18	X19	Y19	Z19	

367	3.660							-957.73645	429.41251	-674.36969	-908.92267	1444.90454	-639.65137							-1046.47192	960.15710	-857.69501	-682.21838	1436.25525	-616.23175	-855.68079	1489.71521	-482.24908	-661.39355	883.58185	-697.29846	-848.85687	1249.12256	-455.79581	-540.51788	998.39105	-470.06287	-575.44617	443.77679	-640.78577				-641.48407	199.84094	-386.63736	-855.34265	879.12665	-754.30060	-630.91467	1263.20874	-537.81104	-455.60989	976.64893	-716.84186	-1004.06671	1246.53516	-599.51404	
368	3.670							-956.16620	428.31717	-675.28931	-908.17865	1445.76270	-648.88379							-1043.90405	962.28595	-868.59827	-681.58209	1436.27087	-622.47455	-856.76965	1491.60608	-491.96381	-661.31921	884.19049	-702.06317	-849.85492	1249.92615	-464.65622	-541.45917	999.05737	-475.95441	-574.15558	447.83963	-655.68701				-641.56165	196.61761	-406.41766	-854.21686	879.04749	-760.62207	-630.63361	1264.74939	-545.83801	-455.07376	977.15076	-722.65546	-1004.45709	1248.21155	-609.32629	
369	3.680							-955.65839	428.22336	-678.30969	-907.37939	1446.33716	-657.38190							-1041.05872	964.38336	-879.43872	-680.63257	1436.12708	-629.70740	-856.74774	1492.86145	-500.56186	-660.70447	884.97394	-709.16724	-849.10553	1251.22009	-472.08722	-542.29199	999.70642	-483.78925	-573.27771	451.49579	-668.99677				-640.97656	193.33179	-427.35690	-852.77386	879.27142	-766.76343	-630.67401	1264.43640	-552.32184	-454.42679	977.29352	-728.60364	-1003.61578	1249.16614	-618.31323	
370	3.690							-955.39850	428.52505	-682.32397	-906.37769	1447.04016	-666.71423							-1037.80688	966.00336	-889.54205				-854.81384	1493.39246	-509.43765	-659.96533	885.96906	-716.09027	-850.37891	1251.99841	-480.99384	-543.10632	1000.22974	-489.53409	-573.02783	455.38882	-680.67389				-640.68719	187.69560	-447.43585	-851.53510	879.81421	-774.77905	-631.41956	1265.13086	-558.22406	-453.69873	977.03857	-734.47327	-1003.81793	1250.27698	-626.77856	
371	3.700							-954.75671	428.01187	-685.11072	-905.09332	1448.10181	-675.60919							-1034.42932	967.58270	-899.98169	-733.99200	1417.25977	-789.77759	-855.20770	1494.80151	-518.21259	-659.41864	887.39563	-723.78699	-851.45801	1252.85596	-489.28616	-543.80096	1000.88959	-496.02460	-572.69873	458.27454	-691.58093				-639.20148	181.64662	-468.61475	-850.51093	880.54193	-782.36609	-631.46552	1265.79016	-566.92023	-453.98386	977.08533	-740.12775	-1002.92346	1251.24036	-636.20691	
372	3.710							-954.67682	427.83801	-688.94159	-903.84674	1448.71216	-684.82501							-1030.64636	968.91504	-910.28308				-855.38214	1495.97485	-527.25500	-658.93250	888.82037	-731.52515	-851.71106	1254.15906	-497.95865	-544.68323	1001.21832	-502.16101	-572.82910	461.86017	-702.78809				-638.50354	173.71460	-489.48508	-849.83533	880.59131	-789.03046	-631.34723	1266.93628	-573.54407	-453.76923	976.78296	-744.98358	-1002.83063	1252.33948	-644.67029	
373	3.720							-954.24756	427.06763	-692.17590	-902.60052	1449.11499	-693.34302							-1026.79993	970.09344	-920.08661	-730.07660	1416.53088	-805.62970	-855.73242	1497.49597	-536.37146	-658.60223	889.88373	-738.77838	-850.35168	1254.38013	-505.12814	-545.49060	1001.71472	-507.74503	-573.23309	464.49854	-712.26019				-636.89844	165.93016	-511.57318	-849.04199	881.31989	-797.66949	-631.23517	1266.70276	-581.27344	-453.91751	975.31543	-750.26489	-1002.39099	1253.19019	-653.48059	
374	3.730							-954.53308	427.14206	-696.72546	-901.07819	1449.68372	-702.33405							-1022.77863	970.92181	-929.29681	-728.15430	1415.91724	-813.26465	-853.76025	1497.22974	-544.11053	-658.61749	889.58624	-743.36542	-851.62341	1254.24133	-514.16394	-546.20532	1002.35785	-513.61646	-573.20966	466.76669	-721.68756				-635.56500	157.85237	-533.06097	-848.64380	880.76270	-804.15173	-630.87183	1266.90967	-588.78699	-452.60468	974.75385	-757.34216	-1002.14825	1254.14722	-662.22815	
